<svg xmlns="http://www.w3.org/2000/svg" width="33" height="32" viewBox="0 0 33 32" fill="none">
  <g clip-path="url(#clip0_92_228)">
    <mask id="path-1-outside-1_92_228" maskUnits="userSpaceOnUse" x="0.144409" y="7" width="21" height="20" fill="black">
      <rect fill="white" x="0.144409" y="7" width="21" height="20"/>
      <path d="M4.27482 22.0385C4.27482 23.724 5.64118 25.0903 7.32666 25.0903C9.01215 25.0903 10.3785 23.724 10.3785 22.0385C10.3785 20.353 9.01215 18.9866 7.32666 18.9866C5.64118 18.9866 4.27482 20.353 4.27482 22.0385Z"/>
    </mask>
    <path d="M8.5474 9.83111L9.21822 10.1665V10.1665L8.5474 9.83111ZM6.71629 13.4933L7.38711 13.8287C7.37853 13.8459 7.36929 13.8627 7.35941 13.8792L6.71629 13.4933ZM3.05408 22.0385V21.2885V22.0385ZM3.74768 21.2885C4.16189 21.2885 4.49768 21.6243 4.49768 22.0385C4.49768 22.4527 4.16189 22.7885 3.74768 22.7885V21.2885ZM11.5992 22.7885C11.185 22.7885 10.8492 22.4527 10.8492 22.0385C10.8492 21.6243 11.185 21.2885 11.5992 21.2885V22.7885ZM20.1444 21.2885C20.5586 21.2885 20.8944 21.6243 20.8944 22.0385C20.8944 22.4527 20.5586 22.7885 20.1444 22.7885V21.2885ZM10.3785 8.75C10.2218 8.75 10.0778 8.80804 9.88424 9.03548C9.6678 9.28974 9.47039 9.66218 9.21822 10.1665L7.87658 9.4957C8.11271 9.02345 8.38694 8.48032 8.74203 8.06318C9.11995 7.61922 9.64744 7.25 10.3785 7.25V8.75ZM9.21822 10.1665L7.38711 13.8287L6.04547 13.1579L7.87658 9.4957L9.21822 10.1665ZM6.71629 13.4933C7.35941 13.8792 7.35908 13.8797 7.35874 13.8803C7.35863 13.8805 7.35829 13.8811 7.35806 13.8814C7.3576 13.8822 7.35713 13.883 7.35666 13.8837C7.35571 13.8853 7.35473 13.8869 7.35372 13.8885C7.3517 13.8918 7.34955 13.8952 7.34727 13.8988C7.34271 13.9059 7.33764 13.9136 7.33202 13.9219C7.32077 13.9384 7.30735 13.9571 7.29153 13.9776C7.25987 14.0187 7.21874 14.0668 7.16651 14.119C7.06151 14.224 6.91438 14.343 6.7143 14.4541C6.31102 14.6782 5.72385 14.8537 4.88519 14.8537V13.3537C5.51141 13.3537 5.83979 13.224 5.98584 13.1429C6.06043 13.1014 6.09641 13.0678 6.10585 13.0584C6.11084 13.0534 6.10977 13.0538 6.10386 13.0614C6.10091 13.0653 6.09679 13.0708 6.09163 13.0784C6.08904 13.0822 6.0862 13.0865 6.08312 13.0914C6.08158 13.0938 6.07998 13.0963 6.07832 13.099C6.07749 13.1003 6.07665 13.1017 6.07579 13.1031C6.07536 13.1038 6.07493 13.1045 6.07449 13.1053C6.07427 13.1056 6.07394 13.1062 6.07383 13.1063C6.0735 13.1069 6.07317 13.1074 6.71629 13.4933ZM4.88519 14.8537C4.46749 14.8537 3.84351 14.9588 3.35213 15.2419C2.89804 15.5034 2.58334 15.8906 2.58334 16.5452H1.08334C1.08334 15.2466 1.78592 14.413 2.60344 13.9421C3.38366 13.4927 4.2856 13.3537 4.88519 13.3537V14.8537ZM2.58334 16.5452V20.8177H1.08334V16.5452H2.58334ZM2.58334 20.8177C2.58334 20.8501 2.61474 20.9755 2.75556 21.1163C2.89637 21.2571 3.02177 21.2885 3.05408 21.2885L3.05408 22.7885C2.50377 22.7885 2.01879 22.5008 1.6949 22.1769C1.371 21.853 1.08334 21.3681 1.08334 20.8177H2.58334ZM3.05408 21.2885H3.74768V22.7885H3.05408V21.2885ZM11.5992 21.2885H20.1444V22.7885H11.5992V21.2885ZM10.3785 7.25H20.1444V8.75H10.3785V7.25ZM5.77482 22.0385C5.77482 22.8955 6.4696 23.5903 7.32666 23.5903V26.5903C4.81275 26.5903 2.77482 24.5524 2.77482 22.0385H5.77482ZM7.32666 23.5903C8.18372 23.5903 8.87851 22.8955 8.87851 22.0385H11.8785C11.8785 24.5524 9.84058 26.5903 7.32666 26.5903V23.5903ZM8.87851 22.0385C8.87851 21.1814 8.18372 20.4866 7.32666 20.4866V17.4866C9.84058 17.4866 11.8785 19.5246 11.8785 22.0385H8.87851ZM7.32666 20.4866C6.4696 20.4866 5.77482 21.1814 5.77482 22.0385H2.77482C2.77482 19.5246 4.81275 17.4866 7.32666 17.4866V20.4866Z" fill="#57DBC5" mask="url(#path-1-outside-1_92_228)"/>
    <mask id="path-3-outside-2_92_228" maskUnits="userSpaceOnUse" x="12.3194" y="7" width="21" height="20" fill="black">
      <rect fill="white" x="12.3194" y="7" width="21" height="20"/>
      <path d="M29.189 22.0385C29.189 23.724 27.8226 25.0903 26.1371 25.0903C24.4516 25.0903 23.0853 23.724 23.0853 22.0385C23.0853 20.353 24.4516 18.9866 26.1371 18.9866C27.8226 18.9866 29.189 20.353 29.189 22.0385Z"/>
    </mask>
    <path d="M24.9164 9.83111L24.2456 10.1665V10.1665L24.9164 9.83111ZM26.7475 13.4933L26.0767 13.8287C26.0852 13.8459 26.0945 13.8627 26.1044 13.8792L26.7475 13.4933ZM30.4097 22.0385V21.2885V22.0385ZM29.7161 21.2885C29.3019 21.2885 28.9661 21.6243 28.9661 22.0385C28.9661 22.4527 29.3019 22.7885 29.7161 22.7885V21.2885ZM21.8645 22.7885C22.2787 22.7885 22.6145 22.4527 22.6145 22.0385C22.6145 21.6243 22.2787 21.2885 21.8645 21.2885V22.7885ZM13.3194 21.2885C12.9052 21.2885 12.5694 21.6243 12.5694 22.0385C12.5694 22.4527 12.9052 22.7885 13.3194 22.7885V21.2885ZM23.0853 8.75C23.242 8.75 23.3859 8.80804 23.5795 9.03548C23.796 9.28974 23.9934 9.66218 24.2456 10.1665L25.5872 9.4957C25.3511 9.02345 25.0768 8.48032 24.7217 8.06318C24.3438 7.61922 23.8163 7.25 23.0853 7.25V8.75ZM24.2456 10.1665L26.0767 13.8287L27.4183 13.1579L25.5872 9.4957L24.2456 10.1665ZM26.7475 13.4933C26.1044 13.8792 26.1047 13.8797 26.105 13.8803C26.1051 13.8805 26.1055 13.8811 26.1057 13.8814C26.1062 13.8822 26.1066 13.883 26.1071 13.8837C26.1081 13.8853 26.109 13.8869 26.1101 13.8885C26.1121 13.8918 26.1142 13.8952 26.1165 13.8988C26.1211 13.9059 26.1261 13.9136 26.1318 13.9219C26.143 13.9384 26.1564 13.9571 26.1722 13.9776C26.2039 14.0187 26.245 14.0668 26.2973 14.119C26.4023 14.224 26.5494 14.343 26.7495 14.4541C27.1528 14.6782 27.7399 14.8537 28.5786 14.8537V13.3537C27.9524 13.3537 27.624 13.224 27.4779 13.1429C27.4033 13.1014 27.3674 13.0678 27.3579 13.0584C27.3529 13.0534 27.354 13.0538 27.3599 13.0614C27.3629 13.0653 27.367 13.0708 27.3721 13.0784C27.3747 13.0822 27.3776 13.0865 27.3807 13.0914C27.3822 13.0938 27.3838 13.0963 27.3855 13.099C27.3863 13.1003 27.3871 13.1017 27.388 13.1031C27.3884 13.1038 27.3888 13.1045 27.3893 13.1053C27.3895 13.1056 27.3898 13.1062 27.3899 13.1063C27.3903 13.1069 27.3906 13.1074 26.7475 13.4933ZM28.5786 14.8537C28.9963 14.8537 29.6203 14.9588 30.1117 15.2419C30.5657 15.5034 30.8804 15.8906 30.8804 16.5452H32.3804C32.3804 15.2466 31.6779 14.413 30.8603 13.9421C30.0801 13.4927 29.1782 13.3537 28.5786 13.3537V14.8537ZM30.8804 16.5452V20.8177H32.3804V16.5452H30.8804ZM30.8804 20.8177C30.8804 20.8501 30.849 20.9755 30.7082 21.1163C30.5674 21.2571 30.442 21.2885 30.4097 21.2885L30.4097 22.7885C30.96 22.7885 31.445 22.5008 31.7689 22.1769C32.0928 21.853 32.3804 21.3681 32.3804 20.8177H30.8804ZM30.4097 21.2885H29.7161V22.7885H30.4097V21.2885ZM21.8645 21.2885H13.3194V22.7885H21.8645V21.2885ZM23.0853 7.25H13.3194V8.75H23.0853V7.25ZM27.689 22.0385C27.689 22.8955 26.9942 23.5903 26.1371 23.5903V26.5903C28.651 26.5903 30.689 24.5524 30.689 22.0385H27.689ZM26.1371 23.5903C25.2801 23.5903 24.5853 22.8955 24.5853 22.0385H21.5853C21.5853 24.5524 23.6232 26.5903 26.1371 26.5903V23.5903ZM24.5853 22.0385C24.5853 21.1814 25.2801 20.4866 26.1371 20.4866V17.4866C23.6232 17.4866 21.5853 19.5246 21.5853 22.0385H24.5853ZM26.1371 20.4866C26.9942 20.4866 27.689 21.1814 27.689 22.0385H30.689C30.689 19.5246 28.651 17.4866 26.1371 17.4866V20.4866Z" fill="#57DBC5" mask="url(#path-3-outside-2_92_228)"/>
    <path d="M22.7737 10H17.6003C17.5451 10 17.5003 10.0448 17.5003 10.1V14.9C17.5003 14.9552 17.5451 15 17.6003 15H25.3337C25.4092 15 25.4574 14.9196 25.4219 14.8529L22.8619 10.0529C22.8445 10.0204 22.8106 10 22.7737 10Z" stroke="#57DBC5" stroke-width="1.5"/>
    <path d="M10.8974 10H15.4003C15.4556 10 15.5003 10.0448 15.5003 10.1V14.9C15.5003 14.9552 15.4556 15 15.4003 15H8.65736C8.58419 15 8.5358 14.924 8.56674 14.8577L10.8067 10.0577C10.8232 10.0225 10.8585 10 10.8974 10Z" stroke="#57DBC5" stroke-width="1.5"/>
  </g>
  <defs>
    <clipPath id="clip0_92_228">
      <rect width="32" height="32" fill="white" transform="translate(0.5)"/>
    </clipPath>
  </defs>
</svg>