<svg xmlns="http://www.w3.org/2000/svg" width="33" height="32" viewBox="0 0 33 32" fill="none">
  <path d="M16.5001 27.3333C10.087 27.3333 6.49921 27.0603 4.66205 26.8437C3.59319 26.7177 2.8281 26.0011 2.71303 24.9311C2.66935 24.5248 2.62459 24.0216 2.58175 23.3994C2.52941 22.639 3.13861 22 3.9008 22H11.6985C12.1665 22 12.5804 22.3036 12.721 22.75C12.8615 23.1964 13.2755 23.5 13.7435 23.5H19.2567C19.7247 23.5 20.1387 23.1964 20.2792 22.75C20.4198 22.3036 20.8337 22 21.3017 22H29.0993C29.8615 22 30.4707 22.639 30.4183 23.3994C30.3755 24.0216 30.3307 24.5248 30.2871 24.9311C30.172 26.0011 29.4069 26.7177 28.3381 26.8437C26.5009 27.0603 22.9131 27.3333 16.5001 27.3333Z" stroke="#57DBC5" stroke-width="1.5" stroke-linecap="round" stroke-linejoin="round"/>
  <path d="M4.04249 22C3.9281 20.5278 3.83334 18.3867 3.83334 15.3334C3.83334 11.4062 3.9901 8.98815 4.14378 7.56122C4.26978 6.39141 5.07846 5.50533 6.23801 5.30579C7.96261 5.009 11.1183 4.66669 16.5 4.66669C21.8817 4.66669 25.0374 5.009 26.762 5.30579C27.9215 5.50533 28.7303 6.3914 28.8562 7.56122C29.0099 8.98815 29.1667 11.4062 29.1667 15.3334C29.1667 18.3867 29.0719 20.5278 28.9575 22" stroke="#57DBC5" stroke-width="1.5" stroke-linecap="round" stroke-linejoin="round"/>
</svg>