<svg xmlns="http://www.w3.org/2000/svg" width="33" height="32" viewBox="0 0 33 32" fill="none">
  <path d="M22.4613 15.881C23.115 14.8234 23.3277 13.5131 23.0433 12.2948C22.4359 9.51965 19.0721 8.38558 16.9768 10.2454C16.8109 10.3916 16.6633 10.5604 16.5 10.7285C16.3367 10.5604 16.1891 10.3916 16.0232 10.2454C13.9279 8.38558 10.5641 9.51965 9.95666 12.2948C9.67232 13.5131 9.88499 14.8234 10.5387 15.881C11.6001 17.6011 13.2647 18.9679 14.9367 20.2011C15.8637 20.8848 17.1363 20.8848 18.0633 20.2011C19.7353 18.9679 21.3999 17.6011 22.4613 15.881Z" fill="white"/>
  <path d="M28.5 14C28.5 22.6123 19.5994 28.7522 17.1291 30.2905C16.7381 30.5339 16.2619 30.5339 15.8709 30.2905C13.4006 28.7522 4.5 22.6123 4.5 14C4.5 7.3726 9.8726 2 16.5 2C23.1274 2 28.5 7.3726 28.5 14Z" stroke="#57DBC5" stroke-width="1.5" stroke-linecap="round" stroke-linejoin="round"/>
  <path d="M22.4613 15.881C23.115 14.8234 23.3277 13.5131 23.0433 12.2948C22.4359 9.51965 19.0721 8.38558 16.9768 10.2454C16.8109 10.3916 16.6633 10.5604 16.5 10.7285C16.3367 10.5604 16.1891 10.3916 16.0232 10.2454C13.9279 8.38558 10.5641 9.51965 9.95666 12.2948C9.67232 13.5131 9.88499 14.8234 10.5387 15.881C11.6001 17.6011 13.2647 18.9679 14.9367 20.2011C15.8637 20.8848 17.1363 20.8848 18.0633 20.2011C19.7353 18.9679 21.3999 17.6011 22.4613 15.881Z" stroke="#57DBC5" stroke-width="1.5" stroke-linecap="round" stroke-linejoin="round"/>
</svg>