<svg xmlns="http://www.w3.org/2000/svg" width="32" height="32" viewBox="0 0 33 32" fill="none">
  <path d="M7.16666 11.3333C7.16666 16.488 11.3453 20.6667 16.5 20.6667C21.6547 20.6667 25.8333 16.488 25.8333 11.3333C25.8333 6.17867 21.6547 2 16.5 2C11.3453 2 7.16666 6.17867 7.16666 11.3333Z" fill="white"/>
  <path d="M25.8333 11.3333C25.8333 16.488 21.6547 20.6667 16.5 20.6667C11.3453 20.6667 7.16666 16.488 7.16666 11.3333C7.16666 6.17867 11.3453 2 16.5 2C21.6547 2 25.8333 6.17867 25.8333 11.3333Z" stroke="#57DBC5" stroke-width="1.5" stroke-linecap="round" stroke-linejoin="round"/>
  <path d="M12.7345 19.8756C9.33846 20.8886 6.68345 23.2333 5.64326 26.1695C5.07899 27.7623 6.24803 29.2605 7.92099 29.4983C9.71952 29.7539 12.4912 29.9997 16.5 29.9997C20.5087 29.9997 23.2805 29.7539 25.0789 29.4983C26.7519 29.2605 27.921 27.7623 27.3567 26.1695C26.3165 23.2333 23.6615 20.8886 20.2655 19.8756" stroke="#57DBC5" stroke-width="1.5" stroke-linecap="round" stroke-linejoin="round"/>
  <path d="M25.8333 11.3333C20.6787 11.3333 16.5 7.15467 16.5 2C16.5 7.15467 12.3213 11.3333 7.16666 11.3333" stroke="#57DBC5" stroke-width="1.5" stroke-linecap="round" stroke-linejoin="round"/>
  <path d="M20.0027 16.2153C20.3057 15.7536 20.1771 15.1336 19.7153 14.8306C19.2536 14.5276 18.6336 14.6562 18.3306 15.118L20.0027 16.2153ZM14.6694 15.118C14.3663 14.6562 13.7464 14.5276 13.2847 14.8306C12.8229 15.1336 12.6943 15.7536 12.9973 16.2153L14.6694 15.118ZM18.3306 15.118C17.9703 15.6671 17.2807 16 16.5 16C15.7193 16 15.0297 15.6671 14.6694 15.118L12.9973 16.2153C13.8036 17.4439 15.1973 18 16.5 18C17.8027 18 19.1964 17.4439 20.0027 16.2153L18.3306 15.118Z" fill="#57DBC5"/>
  <path d="M13.1667 12V12.3333" stroke="#57DBC5" stroke-width="1.5" stroke-linecap="round" stroke-linejoin="round"/>
  <path d="M19.834 12V12.3333" stroke="#57DBC5" stroke-width="1.5" stroke-linecap="round" stroke-linejoin="round"/>
</svg>