<svg xmlns="http://www.w3.org/2000/svg" width="33" height="32" viewBox="0 0 33 32" fill="none">
  <path d="M25.8333 26C22.8878 26 20.5 23.6122 20.5 20.6666C20.5 17.7211 22.8878 15.3333 25.8333 15.3333C28.7789 15.3333 31.1667 17.7211 31.1667 20.6666C31.1667 23.6122 28.7789 26 25.8333 26Z" stroke="#57DBC5" stroke-width="1.5" stroke-linecap="round" stroke-linejoin="round"/>
  <path d="M25.1667 6.66669C22.5 7.00002 20.8333 8.00002 20.8333 8.00002L25.1667 20.3334" stroke="#57DBC5" stroke-width="1.5" stroke-linecap="round" stroke-linejoin="round"/>
  <path d="M21.8333 11C20.7222 13.1111 15.8333 20 15.8333 20C15.8333 20 10.5 21 6.5 20L12.1667 13" stroke="#57DBC5" stroke-width="1.5" stroke-linecap="round" stroke-linejoin="round"/>
  <path d="M9.742 15.9952C8.97853 15.5734 8.1006 15.3333 7.16667 15.3333C4.22115 15.3333 1.83333 17.7211 1.83333 20.6666C1.83333 23.6122 4.22115 26 7.16667 26C10.1122 26 12.5 23.6122 12.5 20.6666C12.5 20.5726 12.4975 20.4792 12.4927 20.3864" stroke="#57DBC5" stroke-width="1.5" stroke-linecap="round" stroke-linejoin="round"/>
  <path d="M15.8333 20C14.6926 17.4902 12.1622 12.8431 11.1667 10.3333" stroke="#57DBC5" stroke-width="1.5" stroke-linecap="round" stroke-linejoin="round"/>
  <path d="M14.1667 9.66669C14.1667 9.66669 11.1667 9.66669 8.5 10.6667" stroke="#57DBC5" stroke-width="1.5" stroke-linecap="round" stroke-linejoin="round"/>
</svg>