<svg xmlns="http://www.w3.org/2000/svg" width="33" height="32" viewBox="0 0 33 32" fill="none">
  <path d="M18.5456 19.3333C18.5456 20.622 17.5009 21.6667 16.2123 21.6667C14.9236 21.6667 13.8789 20.622 13.8789 19.3333C13.8789 18.0447 14.9236 17 16.2123 17C17.5009 17 18.5456 18.0447 18.5456 19.3333Z" fill="white"/>
  <path d="M17.925 5.66669C15.2763 5.66669 13.0327 7.24002 12.5918 9.00002C12.1954 10.5824 13.1191 11.9493 14.657 11.9187C15.0713 11.9105 15.4559 11.7256 15.8125 11.5144C16.363 11.1884 17.2345 10.6832 17.925 10.3334C16.569 11.0836 14.1457 12.1978 14.1457 13.8445L14.1436 15.3307C14.1423 16.2521 14.8889 16.9997 15.8103 16.9997H16.5459C17.1181 16.9997 17.6229 16.7113 17.9229 16.272C18.2692 15.765 18.552 15.156 19.0873 14.8553C21.1085 13.72 22.5917 12.5808 22.5917 10.3334C22.5917 8.00002 21.1838 5.66669 17.925 5.66669Z" fill="white" stroke="#57DBC5" stroke-width="1.5" stroke-linejoin="round"/>
  <path d="M5.99256 24.6275C4.29627 24.5144 2.96553 23.2571 2.81326 21.5639C2.65352 19.7875 2.5 17.1269 2.5 13.4613C2.5 9.79573 2.65352 7.135 2.81326 5.35863C2.96553 3.6654 4.29627 2.40813 5.99257 2.29511C8.14507 2.15167 11.5851 2 16.5083 2C21.4313 2 24.8714 2.15167 27.0239 2.29511C28.7202 2.40814 30.0509 3.66541 30.2032 5.35863C30.3629 7.135 30.5165 9.79573 30.5165 13.4613C30.5165 17.1269 30.3629 19.7875 30.2032 21.5639C30.0509 23.2571 28.7202 24.5144 27.0239 24.6275C25.1373 24.7532 22.2616 24.8852 18.2653 24.9159L12.9936 29.6087C12.1339 30.374 10.7737 29.7638 10.7737 28.6129V24.8458C8.7648 24.7885 7.18207 24.7067 5.99256 24.6275Z" stroke="#57DBC5" stroke-width="1.5" stroke-linecap="round" stroke-linejoin="round"/>
  <path d="M16.212 21.6667C17.5007 21.6667 18.5453 20.622 18.5453 19.3333C18.5453 18.0447 17.5007 17 16.212 17C14.9233 17 13.8787 18.0447 13.8787 19.3333C13.8787 20.622 14.9233 21.6667 16.212 21.6667Z" stroke="#57DBC5" stroke-width="1.5" stroke-linecap="round" stroke-linejoin="round"/>
</svg>