<svg width="21" height="21" viewBox="0 0 21 21" fill="none" xmlns="http://www.w3.org/2000/svg">
<path fill-rule="evenodd" clip-rule="evenodd" d="M6.73558 3.44373H14.2644C15.0516 3.44372 15.6865 3.44371 16.2004 3.48639C16.7295 3.53033 17.194 3.62319 17.6225 3.84582C18.2748 4.18466 18.8067 4.71652 19.1455 5.36882C19.3682 5.79739 19.461 6.26183 19.505 6.79098C19.5476 7.30484 19.5476 7.93975 19.5476 8.72693V12.9224C19.5476 13.7096 19.5476 14.3445 19.505 14.8584C19.461 15.3875 19.3682 15.852 19.1455 16.2805C18.8067 16.9328 18.2748 17.4647 17.6225 17.8035C17.194 18.0262 16.7295 18.119 16.2004 18.163C15.6865 18.2056 15.0516 18.2056 14.2644 18.2056H6.7356C5.94842 18.2056 5.31351 18.2056 4.79965 18.163C4.2705 18.119 3.80606 18.0262 3.37748 17.8035C2.72519 17.4647 2.19333 16.9328 1.85449 16.2805C1.63186 15.852 1.539 15.3875 1.49505 14.8584C1.45238 14.3445 1.45239 13.7096 1.45239 12.9224V8.72691C1.45239 7.93974 1.45238 7.30484 1.49505 6.79098C1.539 6.26183 1.63186 5.79739 1.85449 5.36882C2.19333 4.71652 2.72519 4.18466 3.37748 3.84582C3.80606 3.62319 4.2705 3.53033 4.79965 3.48639C5.31351 3.44371 5.94841 3.44372 6.73558 3.44373ZM4.03961 5.1117C5.02875 5.13696 5.97479 5.52855 6.69305 6.21261L9.40641 8.79676C9.69671 9.07324 9.8839 9.25075 10.0374 9.37481C10.1839 9.4933 10.2529 9.52327 10.2911 9.53495C10.4273 9.57658 10.5728 9.57658 10.7089 9.53495C10.7471 9.52327 10.8161 9.4933 10.9627 9.37481C11.1161 9.25075 11.3033 9.07324 11.5936 8.79676L14.307 6.21261C15.0252 5.52855 15.9713 5.13696 16.9604 5.1117C16.7702 5.01365 16.5186 4.9463 16.0821 4.91006C15.6344 4.87287 15.0589 4.8723 14.2333 4.8723H6.76668C5.94113 4.8723 5.36565 4.87287 4.91788 4.91006C4.48142 4.9463 4.22986 5.01365 4.03961 5.1117ZM18.0361 6.53807C18.0242 6.53866 18.0121 6.53896 18 6.53896H17.0625C16.4034 6.53896 15.7695 6.79252 15.2922 7.24709L12.5591 9.85002C12.2941 10.1024 12.0648 10.3208 11.8608 10.4858C11.6448 10.6604 11.4114 10.814 11.1267 10.9011C10.7182 11.026 10.2818 11.026 9.87332 10.9011C9.5886 10.814 9.35523 10.6604 9.13924 10.4858C8.93517 10.3208 8.7059 10.1024 8.44088 9.85L5.70783 7.24709C5.23053 6.79252 4.59665 6.53896 3.93751 6.53896H3.00001C2.9879 6.53896 2.97586 6.53866 2.9639 6.53807C2.94556 6.64509 2.9305 6.76739 2.91872 6.90921C2.88154 7.35698 2.88096 7.93246 2.88096 8.75801V12.8913C2.88096 13.7169 2.88154 14.2924 2.91872 14.7401C2.9552 15.1794 3.02317 15.4313 3.12222 15.622C3.32553 16.0134 3.64464 16.3325 4.03602 16.5358C4.2267 16.6348 4.47866 16.7028 4.91788 16.7393C5.36565 16.7765 5.94113 16.7771 6.76668 16.7771H14.2333C15.0589 16.7771 15.6344 16.7765 16.0821 16.7393C16.5214 16.7028 16.7733 16.6348 16.964 16.5358C17.3554 16.3325 17.6745 16.0134 17.8778 15.622C17.9769 15.4313 18.0448 15.1794 18.0813 14.7401C18.1185 14.2924 18.1191 13.7169 18.1191 12.8913V8.75801C18.1191 7.93246 18.1185 7.35698 18.0813 6.90921C18.0695 6.76739 18.0545 6.64509 18.0361 6.53807Z" fill="white"/>
</svg>
