<svg width="25" height="24" viewBox="0 0 25 24" fill="none" xmlns="http://www.w3.org/2000/svg">
<path fill-rule="evenodd" clip-rule="evenodd" d="M12.5 6C10.2909 6 8.5 7.79086 8.5 10C8.5 12.2091 10.2909 14 12.5 14C14.7091 14 16.5 12.2091 16.5 10C16.5 7.79086 14.7091 6 12.5 6ZM12.5 8C11.3954 8 10.5 8.89543 10.5 10C10.5 11.1046 11.3954 12 12.5 12C13.6046 12 14.5 11.1046 14.5 10C14.5 8.89543 13.6046 8 12.5 8Z" fill="#57DBC5"/>
<path fill-rule="evenodd" clip-rule="evenodd" d="M11.5901 22.5958C11.7059 22.6753 11.7981 22.7366 11.8626 22.7788L11.9687 22.8472C12.2933 23.0504 12.7061 23.0508 13.0307 22.8476L13.1375 22.7788C13.2019 22.7366 13.2941 22.6753 13.4099 22.5958C13.6415 22.4367 13.9685 22.2041 14.3591 21.9041C15.1386 21.3054 16.1801 20.4322 17.2247 19.3336C19.2857 17.1661 21.5 13.9725 21.5 10.1818C21.5 7.75381 20.5571 5.42084 18.8719 3.69728C17.1859 1.97296 14.8943 1 12.5 1C10.1057 1 7.81415 1.97296 6.12814 3.69728C4.44288 5.42084 3.5 7.75381 3.5 10.1818C3.5 13.9725 5.71434 17.1661 7.77531 19.3336C8.81993 20.4322 9.86136 21.3054 10.6409 21.9041C11.0315 22.2041 11.3585 22.4367 11.5901 22.5958ZM12.5 3C10.6508 3 8.87273 3.75107 7.55815 5.09552C6.24283 6.44073 5.5 8.26992 5.5 10.1818C5.5 13.2007 7.28566 15.9162 9.22469 17.9554C10.1801 18.9602 11.1386 19.7646 11.8591 20.3179C12.1046 20.5065 12.3215 20.6651 12.5 20.7918C12.6785 20.6651 12.8954 20.5065 13.1409 20.3179C13.8614 19.7646 14.8199 18.9602 15.7753 17.9554C17.7143 15.9162 19.5 13.2007 19.5 10.1818C19.5 8.26992 18.7572 6.44073 17.4418 5.09552C16.1273 3.75107 14.3492 3 12.5 3Z" fill="#57DBC5"/>
</svg>
