<svg width="20" height="21" viewBox="0 0 20 21" fill="none" xmlns="http://www.w3.org/2000/svg">
<path fill-rule="evenodd" clip-rule="evenodd" d="M7.00748 4.19655C6.44775 3.78394 6.07083 3.69079 5.86858 3.73026C5.0342 3.89309 4.5396 4.2179 3.8695 4.88799C2.95482 5.80266 2.51101 6.48563 2.70431 7.52115C2.92686 8.71338 4.01411 10.533 7.01079 13.5297C10.0073 16.5262 11.8379 17.6249 13.0368 17.8521C13.5924 17.9574 14.0155 17.8751 14.3951 17.6881C14.801 17.4882 15.1919 17.1516 15.6401 16.6838C16.0377 16.2689 16.279 15.9793 16.4478 15.6944C16.6086 15.423 16.7226 15.1229 16.8107 14.6722C16.8502 14.4699 16.757 14.093 16.3443 13.5331C15.9594 13.0111 15.4164 12.4925 14.9144 12.0693C14.5832 11.79 14.0707 11.7722 13.6567 12.0821L12.3914 13.0293C11.2501 13.8836 9.65535 13.7613 8.64843 12.7543L7.78614 11.8921C6.77922 10.8851 6.65683 9.29036 7.5112 8.14907L8.45835 6.88384C8.76828 6.46983 8.75048 5.95733 8.47114 5.62607C8.04791 5.12418 7.52947 4.58133 7.00748 4.19655ZM7.99642 2.85499C8.67095 3.35222 9.28678 4.00795 9.74526 4.55164C10.581 5.54266 10.5128 6.92057 9.79258 7.88264L8.84543 9.14787C8.49255 9.61926 8.53816 10.2871 8.96465 10.7135L9.82694 11.5758C10.2534 12.0023 10.9212 12.0479 11.3926 11.6951L12.6579 10.7479C13.6199 10.0277 14.9978 9.95949 15.9888 10.7951C16.5326 11.2536 17.1885 11.8695 17.6859 12.5442C18.1554 13.181 18.6278 14.0631 18.4464 14.9917C18.3299 15.588 18.1589 16.076 17.8816 16.544C17.6124 16.9985 17.2625 17.3996 16.8435 17.8369C16.358 18.3436 15.8045 18.8518 15.1316 19.1832C14.4324 19.5276 13.6423 19.6632 12.7264 19.4896C10.9822 19.159 8.83649 17.7124 5.83228 14.7082C2.82827 11.7042 1.39087 9.56768 1.06594 7.82697C0.711763 5.92957 1.69766 4.7028 2.691 3.70947C3.51149 2.88899 4.2895 2.34031 5.54935 2.09445C6.47778 1.91326 7.35963 2.38557 7.99642 2.85499Z" fill="white"/>
</svg>
