<svg width="41" height="37" viewBox="0 0 41 37" fill="none" xmlns="http://www.w3.org/2000/svg">
<g clip-path="url(#clip0_92_455)">
<rect x="0.5" y="0.737061" width="40" height="35.2749" rx="17.6374" fill="white"/>
<path fill-rule="evenodd" clip-rule="evenodd" d="M100.5 0.737061H0.5V100.737H100.5V0.737061ZM11.935 22.4922L10.5 27.1932L15.8896 25.926C17.9863 26.9202 20.4202 27.2159 22.7448 26.759C25.0694 26.302 27.1286 25.123 28.5447 23.4382C29.9608 21.7535 30.6387 19.6761 30.4541 17.5872C30.2694 15.4983 29.2346 13.538 27.5394 12.0661C25.8443 10.5942 23.6026 9.70937 21.2256 9.57398C18.8487 9.4386 16.496 10.0617 14.5992 11.3291C12.7024 12.5964 11.3888 14.4229 10.8994 16.4734C10.41 18.5239 10.7777 20.6609 11.935 22.4922ZM16.4827 24.3408L16.1494 24.1669L13.1383 24.8725L13.9405 22.2487L13.7315 21.9455C12.9654 20.8483 12.5606 19.5856 12.562 18.298C12.5594 16.7451 13.1409 15.235 14.2158 14.0032C15.2907 12.7713 16.7986 11.8868 18.5047 11.4875C20.2108 11.0882 22.0191 11.1965 23.6478 11.7956C25.2765 12.3947 26.6342 13.4509 27.5093 14.7996C28.3844 16.1483 28.7277 17.7138 28.4857 19.252C28.2437 20.7903 27.4301 22.2149 26.1715 23.3039C24.913 24.393 23.2802 25.0852 21.5277 25.2727C19.7752 25.4602 18.0014 25.1326 16.4827 24.3408ZM23.5703 19.2198C23.8151 19.2689 24.0438 19.3665 24.2392 19.5051C24.2962 19.5345 24.3584 19.565 24.4234 19.5968C24.7976 19.7797 25.2656 20.0085 25.3522 20.3598C25.3946 20.5615 25.365 20.7698 25.2674 20.9562C25.1014 21.2646 24.8518 21.5324 24.5405 21.7361C24.2292 21.9397 23.8658 22.0729 23.4822 22.124C22.809 22.1912 22.1277 22.0967 21.5106 21.8507C20.9165 21.6717 20.3478 21.4333 19.8157 21.14C18.7554 20.5629 17.8325 19.8102 17.0984 18.9237C16.8725 18.6538 16.6631 18.3734 16.4713 18.0839C16.2054 17.7058 16.0036 17.2957 15.8724 16.8664C15.8208 16.6877 15.7942 16.5041 15.7934 16.3197C15.7804 15.9914 15.8513 15.6647 16.0009 15.3637C16.1505 15.0627 16.3749 14.795 16.6577 14.5804C16.8206 14.4529 17.0219 14.3696 17.2375 14.3405C17.453 14.3114 17.6735 14.3378 17.8723 14.4164C18.2579 14.703 18.5422 15.0806 18.6915 15.5047C18.8847 15.8073 18.9749 16.1523 18.9514 16.4986C18.8454 16.8126 18.6511 17.0981 18.3864 17.3285C18.3108 17.3854 18.2633 17.4659 18.2538 17.553C18.2443 17.6402 18.2736 17.7271 18.3356 17.7956C19.0619 18.8932 20.1888 19.7426 21.5332 20.2058C21.608 20.2418 21.6952 20.2526 21.7784 20.2362C21.8616 20.2197 21.9351 20.1771 21.9851 20.1163C22.0595 20.0369 22.1339 19.9325 22.2123 19.8226C22.3839 19.5817 22.5748 19.314 22.8269 19.2218C23.0713 19.1714 23.3256 19.1707 23.5703 19.2198Z" fill="#6A6A6A"/>
</g>
<defs>
<clipPath id="clip0_92_455">
<rect x="0.5" y="0.737061" width="40" height="35.2749" rx="17.6374" fill="white"/>
</clipPath>
</defs>
</svg>
