<svg width="21" height="20" viewBox="0 0 21 20" fill="none" xmlns="http://www.w3.org/2000/svg">
<path fill-rule="evenodd" clip-rule="evenodd" d="M10.5 5.00004C8.65905 5.00004 7.16667 6.49242 7.16667 8.33337C7.16667 10.1743 8.65905 11.6667 10.5 11.6667C12.3409 11.6667 13.8333 10.1743 13.8333 8.33337C13.8333 6.49242 12.3409 5.00004 10.5 5.00004ZM10.5 6.66671C9.57953 6.66671 8.83333 7.4129 8.83333 8.33337C8.83333 9.25385 9.57953 10 10.5 10C11.4205 10 12.1667 9.25385 12.1667 8.33337C12.1667 7.4129 11.4205 6.66671 10.5 6.66671Z" fill="white"/>
<path fill-rule="evenodd" clip-rule="evenodd" d="M9.74172 18.8298C9.83826 18.8962 9.91505 18.9472 9.96879 18.9824L10.0573 19.0394C10.3278 19.2087 10.6717 19.209 10.9422 19.0397L11.0312 18.9824C11.085 18.9472 11.1617 18.8962 11.2583 18.8298C11.4513 18.6973 11.7237 18.5034 12.0492 18.2535C12.6989 17.7546 13.5667 17.0268 14.4372 16.1113C16.1547 14.3051 18 11.6438 18 8.48489C18 6.46155 17.2143 4.51741 15.8099 3.08111C14.4049 1.64417 12.4952 0.833374 10.5 0.833374C8.50476 0.833374 6.59512 1.64417 5.19012 3.08111C3.78573 4.51741 3 6.46155 3 8.48489C3 11.6438 4.84529 14.3051 6.56276 16.1113C7.43328 17.0268 8.30113 17.7546 8.95077 18.2535C9.27627 18.5034 9.54873 18.6973 9.74172 18.8298ZM10.5 2.50004C8.95902 2.50004 7.47727 3.12593 6.38179 4.2463C5.28569 5.36732 4.66667 6.89164 4.66667 8.48489C4.66667 11.0006 6.15471 13.2635 7.77057 14.9629C8.56672 15.8002 9.36554 16.4706 9.96589 16.9316C10.1705 17.0888 10.3513 17.221 10.5 17.3265C10.6487 17.221 10.8295 17.0888 11.0341 16.9316C11.6345 16.4706 12.4333 15.8002 13.2294 14.9629C14.8453 13.2635 16.3333 11.0006 16.3333 8.48489C16.3333 6.89164 15.7143 5.36732 14.6182 4.2463C13.5227 3.12593 12.041 2.50004 10.5 2.50004Z" fill="white"/>
</svg>
