<svg xmlns="http://www.w3.org/2000/svg" width="33" height="32" viewBox="0 0 33 32" fill="none">
  <path d="M16.5 3.33337C22.5208 3.33337 27.8333 11.5058 27.8333 21.7302C27.8333 23.5397 27.8333 28.6667 16.5 28.6667C5.16666 28.6667 5.16666 23.5397 5.16666 21.7302C5.16666 11.5058 10.4792 3.33337 16.5 3.33337Z" fill="white"/>
  <path d="M16.5 3.33337C22.5208 3.33337 27.8333 11.5058 27.8333 21.7302C27.8333 23.5397 27.8333 28.6667 16.5 28.6667C5.16666 28.6667 5.16666 23.5397 5.16666 21.7302C5.16666 11.5058 10.4792 3.33337 16.5 3.33337Z" stroke="#57DBC5" stroke-width="1.5" stroke-linecap="round" stroke-linejoin="round"/>
  <path d="M12.2671 4.7168C6.24655 5.26713 2.5 10.2267 2.5 13.9999C2.5 15.4485 3.01726 17.5965 5.3277 18.6709" stroke="#57DBC5" stroke-width="1.5" stroke-linecap="round" stroke-linejoin="round"/>
  <path d="M27.6723 18.6709C29.9828 17.5966 30.5001 15.4485 30.5001 13.9999C30.5001 10.2267 26.7535 5.2671 20.7329 4.7168" stroke="#57DBC5" stroke-width="1.5" stroke-linecap="round" stroke-linejoin="round"/>
  <path d="M16.5 22V24" stroke="#57DBC5" stroke-width="1.5" stroke-linecap="round" stroke-linejoin="round"/>
  <path d="M20.5 13.3334V14" stroke="#57DBC5" stroke-width="1.5" stroke-linecap="round" stroke-linejoin="round"/>
  <path d="M12.5 13.3334V14" stroke="#57DBC5" stroke-width="1.5" stroke-linecap="round" stroke-linejoin="round"/>
  <path d="M11.1667 24C11.1667 24 11.8333 25.3333 13.8333 25.3333C15.8333 25.3333 16.5 24 16.5 24" stroke="#57DBC5" stroke-width="1.5" stroke-linecap="round" stroke-linejoin="round"/>
  <path d="M16.5 24C16.5 24 17.1667 25.3333 19.1667 25.3333C21.1667 25.3333 21.8333 24 21.8333 24" stroke="#57DBC5" stroke-width="1.5" stroke-linecap="round" stroke-linejoin="round"/>
  <path d="M16.5 22C15.0833 22 13.8333 20.9246 13.8333 19.5793C13.8333 19.3412 13.8333 18.6666 16.5 18.6666C19.1667 18.6666 19.1667 19.3412 19.1667 19.5793C19.1667 20.9246 17.9167 22 16.5 22Z" stroke="#57DBC5" stroke-width="1.5" stroke-linecap="round" stroke-linejoin="round"/>
</svg>