<svg width="33" height="32" viewBox="0 0 33 32" fill="none" xmlns="http://www.w3.org/2000/svg">
<path d="M24.7487 18.6666C25.0201 17.8266 25.1667 16.9304 25.1667 16C25.1667 11.2135 21.2865 7.33331 16.5 7.33331C11.7135 7.33331 7.83333 11.2135 7.83333 16C7.83333 16.9304 7.97993 17.8266 8.25133 18.6666" stroke="#57DBC5" stroke-width="1.5" stroke-linecap="round" stroke-linejoin="round"/>
<path d="M16.5 2V4" stroke="#57DBC5" stroke-width="1.5" stroke-linecap="round" stroke-linejoin="round"/>
<path d="M30.5 16H28.5" stroke="#57DBC5" stroke-width="1.5" stroke-linecap="round" stroke-linejoin="round"/>
<path d="M4.5 16H2.5" stroke="#57DBC5" stroke-width="1.5" stroke-linecap="round" stroke-linejoin="round"/>
<path d="M8.01467 7.51501L6.60043 6.10077" stroke="#57DBC5" stroke-width="1.5" stroke-linecap="round" stroke-linejoin="round"/>
<path d="M24.9853 7.51501L26.3995 6.10077" stroke="#57DBC5" stroke-width="1.5" stroke-linecap="round" stroke-linejoin="round"/>
<path d="M2.5 29.9999C3.75984 29.9999 5.01968 29.629 6.11337 28.8872C6.73753 28.4638 7.5958 28.4638 8.21993 28.8872C9.31367 29.629 10.5735 29.9999 11.8333 29.9999C13.0932 29.9999 14.353 29.629 15.4467 28.8872C16.0709 28.4638 16.9291 28.4638 17.5533 28.8872C18.647 29.629 19.9068 29.9999 21.1667 29.9999C22.4265 29.9999 23.6863 29.629 24.7801 28.8872C25.4042 28.4638 26.2625 28.4638 26.8866 28.8872C27.9803 29.629 29.2401 29.9999 30.5 29.9999" stroke="#57DBC5" stroke-width="1.5" stroke-linecap="round" stroke-linejoin="round"/>
<path d="M2.5 24.6666C3.75984 24.6666 5.01968 24.2957 6.11337 23.5539C6.73753 23.1305 7.5958 23.1305 8.21993 23.5539C9.31367 24.2957 10.5735 24.6666 11.8333 24.6666C13.0932 24.6666 14.353 24.2957 15.4467 23.5539C16.0709 23.1305 16.9291 23.1305 17.5533 23.5539C18.647 24.2957 19.9068 24.6666 21.1667 24.6666C22.4265 24.6666 23.6863 24.2957 24.7801 23.5539C25.4042 23.1305 26.2625 23.1305 26.8866 23.5539C27.9803 24.2957 29.2401 24.6666 30.5 24.6666" stroke="#57DBC5" stroke-width="1.5" stroke-linecap="round" stroke-linejoin="round"/>
</svg>
