<svg xmlns="http://www.w3.org/2000/svg" width="33" height="32" viewBox="0 0 33 32" fill="none">
  <path d="M22.62 21.4306C22.3703 22.1898 21.2964 22.1898 21.0467 21.4306L19.3681 16.3266C19.2859 16.0768 19.0899 15.8808 18.8401 15.7986L13.7361 14.12C12.9769 13.8703 12.9769 12.7964 13.7361 12.5467L18.8401 10.8681C19.0899 10.7859 19.2859 10.59 19.3681 10.3402L21.0467 5.23607C21.2964 4.47689 22.3703 4.47689 22.62 5.23607L24.2986 10.3402C24.3808 10.59 24.5767 10.7859 24.8265 10.8681L29.9306 12.5467C30.6898 12.7964 30.6898 13.8703 29.9306 14.12L24.8265 15.7986C24.5767 15.8808 24.3808 16.0768 24.2986 16.3266L22.62 21.4306Z" stroke="#57DBC5" stroke-width="1.5" stroke-linecap="round" stroke-linejoin="round"/>
  <path d="M11.8129 29.5322C11.6078 30.156 10.7255 30.156 10.5204 29.5322L9.25353 25.6802C9.186 25.475 9.02507 25.314 8.8198 25.2465L4.96778 23.9796C4.34407 23.7745 4.34407 22.8922 4.96778 22.6871L8.8198 21.4202C9.02507 21.3527 9.186 21.1918 9.25353 20.9865L10.5204 17.1345C10.7255 16.5108 11.6078 16.5108 11.8129 17.1345L13.0798 20.9865C13.1473 21.1918 13.3083 21.3527 13.5135 21.4202L17.3655 22.6871C17.9893 22.8922 17.9893 23.7745 17.3655 23.9796L13.5135 25.2465C13.3083 25.314 13.1473 25.475 13.0798 25.6802L11.8129 29.5322Z" stroke="#57DBC5" stroke-width="1.5" stroke-linecap="round" stroke-linejoin="round"/>
  <path d="M9.08167 13.579C8.897 14.1403 8.10293 14.1403 7.91833 13.579L6.77818 10.1122C6.71743 9.92746 6.57255 9.7826 6.38783 9.7218L2.92101 8.58167C2.35967 8.397 2.35967 7.60293 2.92101 7.41833L6.38783 6.27818C6.57255 6.21743 6.71743 6.07255 6.77818 5.88783L7.91833 2.42101C8.10293 1.85966 8.89707 1.85966 9.08167 2.42101L10.2218 5.88783C10.2826 6.07255 10.4275 6.21743 10.6122 6.27818L14.079 7.41833C14.6403 7.60293 14.6403 8.39707 14.079 8.58167L10.6122 9.7218C10.4275 9.7826 10.2826 9.92746 10.2218 10.1122L9.08167 13.579Z" stroke="#57DBC5" stroke-width="1.5" stroke-linecap="round" stroke-linejoin="round"/>
</svg>